<?xml version="1.0" encoding="utf-8"?>
<!-- Generator: Adobe Illustrator 16.0.0, SVG Export Plug-In . SVG Version: 6.00 Build 0)  -->
<!DOCTYPE svg PUBLIC "-//W3C//DTD SVG 1.1//EN" "http://www.w3.org/Graphics/SVG/1.1/DTD/svg11.dtd">
<svg version="1.1" id="Layer_1" xmlns:sketch="http://www.bohemiancoding.com/sketch/ns"
	 xmlns="http://www.w3.org/2000/svg" xmlns:xlink="http://www.w3.org/1999/xlink" x="0px" y="0px" width="128px" height="128px"
	 viewBox="0 0 128 128" enable-background="new 0 0 128 128" xml:space="preserve">
<title>129</title>
<desc>Created with Sketch.</desc>
<rect y="-1.5" fill="#36373A" width="128" height="129.5"/>
<g>
	<path fill="#FFFFFF" d="M24.146,68.081V61.87c1.501-0.069,2.631-0.371,3.39-0.906c0.759-0.535,1.328-1.389,1.708-2.562
		c0.379-1.173,0.569-3.08,0.569-5.719v-1.087c0-2.916,0.189-5.003,0.569-6.263c0.379-1.259,0.953-2.251,1.721-2.976
		c0.767-0.725,1.902-1.311,3.403-1.76c1.035-0.311,2.691-0.466,4.969-0.466h1.372v6.185c-1.846,0-3.058,0.1-3.636,0.297
		c-0.579,0.199-0.997,0.527-1.255,0.983c-0.259,0.458-0.388,1.212-0.388,2.265c0,1.07-0.078,3.123-0.233,6.159
		c-0.086,1.726-0.311,3.123-0.673,4.192c-0.362,1.07-0.824,1.95-1.384,2.64c-0.561,0.69-1.419,1.406-2.575,2.148
		c1.018,0.586,1.851,1.271,2.497,2.057c0.647,0.785,1.143,1.734,1.488,2.847c0.345,1.113,0.569,2.618,0.673,4.517l0.181,5.486
		c0,1.139,0.146,1.944,0.44,2.419c0.293,0.475,0.737,0.815,1.333,1.022c0.595,0.207,1.772,0.311,3.532,0.311v6.186h-1.372
		c-2.329,0-4.115-0.182-5.357-0.544s-2.29-0.979-3.145-1.851c-0.854-0.871-1.428-1.94-1.721-3.209
		c-0.293-1.268-0.44-3.256-0.44-5.965v-0.906c0-2.725-0.19-4.666-0.569-5.822c-0.38-1.156-0.945-2.001-1.695-2.536
		C26.798,68.479,25.664,68.168,24.146,68.081z"/>
</g>
<g>
	<path fill="#FFFFFF" d="M100.351,69.013c-0.75,0.535-1.315,1.38-1.694,2.536c-0.38,1.156-0.57,3.098-0.57,5.822v0.906
		c0,2.709-0.146,4.697-0.439,5.965c-0.293,1.269-0.867,2.338-1.721,3.209c-0.854,0.871-1.902,1.488-3.145,1.851
		s-3.027,0.544-5.357,0.544h-1.371V83.66c1.76,0,2.938-0.104,3.532-0.311c0.596-0.207,1.04-0.548,1.333-1.022
		s0.439-1.28,0.439-2.419l0.182-5.486c0.104-1.898,0.328-3.403,0.673-4.517c0.345-1.112,0.841-2.062,1.488-2.847
		c0.646-0.785,1.479-1.471,2.497-2.057c-1.156-0.742-2.014-1.458-2.575-2.148c-0.56-0.69-1.022-1.57-1.384-2.64
		c-0.363-1.069-0.587-2.467-0.674-4.192c-0.154-3.036-0.232-5.089-0.232-6.159c0-1.052-0.129-1.807-0.389-2.265
		c-0.258-0.457-0.676-0.785-1.255-0.983c-0.577-0.198-1.79-0.297-3.636-0.297v-6.185h1.371c2.277,0,3.934,0.155,4.969,0.466
		c1.502,0.449,2.637,1.035,3.403,1.76c0.769,0.725,1.342,1.717,1.722,2.976c0.379,1.26,0.568,3.347,0.568,6.263v1.087
		c0,2.64,0.19,4.546,0.57,5.719c0.379,1.173,0.949,2.027,1.707,2.562c0.76,0.535,1.89,0.837,3.391,0.906v6.211
		C102.236,68.168,101.102,68.479,100.351,69.013z"/>
</g>
<g id="layer1" transform="translate(0,-28.362168)" inkscape:groupmode="layer" inkscape:label="Layer 1">
	<rect id="rect3009" x="49.833" y="75.933" fill="#FFFFFF" width="12.929" height="34.476"/>
	<path id="path3785" sodipodi:nodetypes="ccccccc" inkscape:connector-curvature="0" fill="#FFFFFF" d="M49.833,103.944
		c0-23.702,30.166-23.702,30.166-23.702v12.928c0,0-17.237,0-17.237,10.773v6.465H49.833V103.944z"/>
</g>
</svg>
