<?xml version="1.0" encoding="utf-8"?>
<!-- Generator: Adobe Illustrator 16.0.0, SVG Export Plug-In . SVG Version: 6.00 Build 0)  -->
<!DOCTYPE svg PUBLIC "-//W3C//DTD SVG 1.1//EN" "http://www.w3.org/Graphics/SVG/1.1/DTD/svg11.dtd">
<svg version="1.1" id="Layer_1" xmlns:sketch="http://www.bohemiancoding.com/sketch/ns"
	 xmlns="http://www.w3.org/2000/svg" xmlns:xlink="http://www.w3.org/1999/xlink" x="0px" y="0px" width="128px" height="128px"
	 viewBox="0 0 128 128" enable-background="new 0 0 128 128" xml:space="preserve">
<title>129</title>
<desc>Created with Sketch.</desc>
<rect fill="#36373A" width="128" height="129.5"/>
<g>
	<path fill="#FFFFFF" d="M76.176,26.963v-3.296c0.797-0.037,1.396-0.197,1.8-0.481c0.402-0.284,0.704-0.737,0.906-1.359
		c0.201-0.623,0.302-1.634,0.302-3.035v-0.577c0-1.547,0.101-2.655,0.303-3.323c0.201-0.668,0.506-1.195,0.913-1.579
		c0.407-0.385,1.009-0.696,1.806-0.934c0.549-0.165,1.428-0.247,2.637-0.247h0.728v3.282c-0.979,0-1.622,0.053-1.929,0.158
		c-0.308,0.105-0.529,0.28-0.667,0.522c-0.137,0.243-0.205,0.643-0.205,1.202c0,0.568-0.042,1.657-0.124,3.269
		c-0.046,0.916-0.165,1.657-0.357,2.225s-0.438,1.035-0.734,1.4c-0.298,0.367-0.753,0.747-1.366,1.14
		c0.54,0.311,0.981,0.675,1.325,1.091c0.344,0.417,0.606,0.92,0.789,1.511c0.184,0.591,0.303,1.39,0.357,2.397l0.096,2.911
		c0,0.604,0.078,1.032,0.234,1.284c0.155,0.252,0.391,0.433,0.707,0.542c0.315,0.11,0.94,0.165,1.874,0.165v3.282h-0.728
		c-1.236,0-2.184-0.097-2.843-0.289c-0.659-0.191-1.215-0.52-1.669-0.981c-0.452-0.463-0.757-1.03-0.913-1.703
		c-0.155-0.672-0.233-1.728-0.233-3.165v-0.481c0-1.446-0.101-2.476-0.302-3.09c-0.202-0.613-0.501-1.062-0.899-1.346
		C77.584,27.174,76.982,27.009,76.176,26.963z"/>
</g>
<g>
	<path fill="#FFFFFF" d="M116.615,27.458c-0.398,0.284-0.698,0.732-0.899,1.346c-0.201,0.614-0.303,1.644-0.303,3.09v0.481
		c0,1.438-0.078,2.493-0.233,3.165c-0.155,0.673-0.46,1.24-0.913,1.703c-0.453,0.462-1.009,0.79-1.668,0.981
		c-0.659,0.192-1.606,0.289-2.844,0.289h-0.728V35.23c0.935,0,1.56-0.055,1.875-0.165s0.552-0.291,0.707-0.542
		s0.233-0.679,0.233-1.284l0.097-2.911c0.055-1.007,0.174-1.806,0.356-2.397c0.184-0.59,0.446-1.094,0.79-1.511
		c0.343-0.417,0.785-0.78,1.325-1.091c-0.613-0.394-1.068-0.773-1.367-1.14c-0.297-0.366-0.542-0.833-0.733-1.4
		c-0.193-0.567-0.312-1.309-0.358-2.225c-0.081-1.611-0.123-2.701-0.123-3.269c0-0.559-0.068-0.959-0.206-1.202
		c-0.137-0.242-0.358-0.417-0.666-0.522c-0.307-0.105-0.95-0.158-1.93-0.158v-3.282h0.728c1.209,0,2.088,0.083,2.637,0.247
		c0.798,0.238,1.399,0.549,1.807,0.934c0.407,0.384,0.712,0.911,0.913,1.579s0.302,1.776,0.302,3.323v0.577
		c0,1.401,0.102,2.413,0.303,3.035s0.504,1.076,0.906,1.359c0.402,0.284,1.002,0.444,1.799,0.481v3.296
		C117.615,27.009,117.014,27.174,116.615,27.458z"/>
</g>
<path fill="#FFFFFF" d="M96.668,20.439v-4.36h-6.86v14.865v3.43h6.86v-3.43c0-5.717,9.146-5.717,9.146-5.717v-6.86
	C105.814,18.367,101.012,18.372,96.668,20.439z"/>
</svg>
